<svg xmlns="http://www.w3.org/2000/svg" xmlns:xlink="http://www.w3.org/1999/xlink" width="1e3" height="1e3" viewBox="0 0 1e3 1e3">
  <defs>
    <style>
      .cls-1 {
        fill: #fff;
      }
    </style>
  </defs>
  <rect id="Rounded_Rectangle_1" data-name="Rounded Rectangle 1" class="cls-1" width="1e3" height="1e3" rx="200" ry="200"/>
  <g fill="#000" stroke="#000" stroke-linecap="round" stroke-linejoin="round" stroke-width="5">
  <path d="m72.67 454c8.06-21.05 26.64-69.53 37.16-96.96 13.24-34.54 41.84-109.18 57.21-149.27 13.38-34.9 37.37-97.52 47.99-125.22 4.28-11.15 11.73-30.58 14.9-38.87 0 0 40.82 0.57 40.82 0.57-8.36 21.35-27.91 71.26-39.1 99.82-14.28 36.47-43.9 112.09-59.23 151.25-12.35 31.52-33.95 86.66-43.2 110.28-1.82 4.66-4.78 12.21-5.91 15.09l69.19-0.13c-13.19 27.72-14.64 32.34-15.56 32.69-1.12 0.39-104.31 1.25-104.44 1.25"/>
  <path d="m669.38 79.88c-23.11-0.11-77.45-0.37-108.69-0.51-40.15-0.2-120.97-0.57-161.63-0.76-31.64-0.13-81.1-0.33-98.92-0.4-4.94-0.01-8.15 0.05-8.04-1.1 0.03-0.21 10.17-29.31 10.28-29.72 0.64-2.22 1.56-3.11 3.5-3.34 0.34-0.04 76.19 0.85 106.96 1.18 38.81 0.4 119.95 1.23 162.28 1.66 34.75 0.35 96.16 0.96 122.82 1.23 5.41 0.06 15.71 0.16 20.61 0.21l-31.67 79.61s-37-0.06-37-0.06 19.5-48 19.5-48"/>
  <path d="m613 226.06-18.12 46.82c13.94 0.02 38.42 0.07 38.5-0.13 0 0 27.19-70.86 31.37-81.75-22.97-0.06-76.97-0.21-108.02-0.29-39.86-0.1-120.64-0.32-161.57-0.43-32.15-0.08-87.63-0.23-110.97-0.29-1.92 0.03-5.96 0.1-6.19 0.01 0 0-9.28 30.85-10.17 33.81 23.43 0.15 79.96 0.52 113.06 0.74 42 0.27 121.34 0.79 158.67 1.03 27.66 0.18 64.38 0.42 73.44 0.48"/>
  <path d="m302 550.76c0.06 0.02 112.28 0.75 112.31 0.8 0 0 53.64 93.75 53.69 93.94 0.02 0.08 30.37-0.43 37.5-0.5-13.65-25.7-44.2-83.26-61.12-115.11-2.62-4.93-8.47-15.71-8.5-15.89-0.01 0-91.79-0.22-130.69-0.31-12.64-0.03-26.49-0.06-27.69-0.07 2.68 5.83 11.35 18.56 16.28 25.74 2.4 3.4 7.85 11.25 8.22 11.4z"/>
  <path d="m260.25 684.88s88.13-1 88.13-1c-7.64-12.96-21.62-36.6-22.26-36.63-5.68 0.6-18.04 0.75-24.91 0.82-35.56 0.27-80.11 0.61-89.09 0.68 8.35 22.2 28.56 75.93 40.41 107.45 14.69 39.08 41.2 109.68 53.01 141.2 4.47 11.98 16.56 44.46 16.58 44.48 0.38 0.29 34.42-0.15 38.76-0.19-8.91-22.73-30.8-78.6-43.79-111.76-14.89-38-40.47-103.27-51.15-130.52-1.96-5.03-4.81-12.29-5.69-14.53"/>
  <path d="m535.31 775.56c10.87-30 41.94-115.67 42.79-116.14 2.29-1.2 9.88-1.07 11.3-1.07 15.18 0.02 50.25 0.08 70.13 0.12 14.59 0.05 39.63 0.15 40.77 1.09 2.28 1.94 5.96 10.76 7.06 13.66 2.76 7.47 7.66 20.9 8.27 22.26-32.52-0.03-106.14-0.31-106.49-0.15-1.3 0.66-4.36 7.77-4.98 9.19-12.76 31.52-27.31 67.64-27.45 67.94-1.06 2.1-2.2 2.78-4.57 2.67-0.42-0.02-35.51 0.42-36.83 0.43z"/>
  <path d="m789.49 520.09c0.01 0 26.63 69.71 37.25 97.47 13.39 34.87 42.25 109.96 57.71 150.18 13.45 34.96 37.65 97.87 48.4 125.81 8.39 21.81 17.78 46.22 18.77 48.83-9.78 0-26.34-0.27-30.62-0.17-2.25 0.04-5.25 0.7-6.4 0.78-1.45 0.08-2.28-0.82-2.97-2.81-0.12-0.39-28.35-72.29-39.73-101.45-14.27-36.76-43.6-112.5-58.68-151.48-12.2-31.66-33.65-87.49-42.9-111.65-0.95-2.5-2.81-7.37-3.71-9.74-0.73-1.94-2.9-9.73-3.92-10.24-0.78-0.35-58.17 0.42-62.34 0.65-0.9 0.03-4.19 0.09-4.48-0.24-0.31-0.37-12.95-30.55-15.55-36.59 32.08 0.14 109.08 0.57 109.17 0.65z"/>
 </g>
 <g>
  <g stroke-width=".026306">
   <path d="m229.65 42.061c-3.498 2.0568-3.6604 6.6374-5.3675 9.9709-50.797 132.55-101.61 265.1-152.38 397.66-1.3741 3.5373 1.8516 7.3349 5.5167 7.0595 18.817 0.0251 37.637-0.43728 56.455-0.53391 13.922-0.23272 27.868-0.0883 41.773-0.67042 4.6796-0.98858 5.7653-6.3821 7.7216-10.012 3.0632-7.0766 6.7818-13.887 9.5479-21.079 0.70957-3.4441-2.4843-6.541-5.8805-6.1758-20.028-0.33262-40.062 6e-3 -60.092 0.0178 30.833-79.853 62.311-159.49 93.461-239.24 16.996-43.522 34.184-86.971 50.936-130.59 1.0514-3.4939-2.167-6.9688-5.7062-6.5263-11.406-0.18699-22.836-0.32916-34.231-0.259-0.58507 0.12416-1.1701 0.24832-1.7552 0.37248z"/>
   <path d="m308.9 41.848c-3.1664-0.14921-7.3138 0.16903-8.3398 3.81-3.2384 9.6294-6.868 19.169-9.8612 28.855-0.90369 3.5505 2.8005 6.5582 6.1845 5.9506 122.98 0.62091 245.95 1.1244 368.93 1.768-5.3675 13.958-11.298 27.716-16.682 41.651-1.2297 3.5109 2.2254 7.0496 5.7627 6.4767 10.223-0.1607 20.481 0.34843 30.684-0.3528 4.3041-0.57574 4.9096-5.5446 6.4178-8.7758 9.021-22.753 18.185-45.462 27.114-68.243 1.2506-3.5697-2.1719-7.0298-5.7269-6.7554-23.524-0.79794-47.072-0.69346-70.606-1.0257-108.95-1.0174-217.91-2.2518-326.86-3.3327-2.3381-0.01504-4.6762-0.03099-7.0143-0.02528z"/>
   <path d="m283.88 187.76c-3.142-0.1943-7.3754-0.11886-8.5611 3.4684-2.9937 9.6889-6.0828 19.379-8.6121 29.193-0.4184 3.4161 2.9416 6.1101 6.2082 5.6336 112.19 0.9932 224.42 1.4968 336.6 2.2995-4.9544 13.535-10.37 26.916-15.415 40.402-1.2258 3.5205 2.2512 7.0584 5.7936 6.4625 10.773-0.16073 21.593 0.0805 32.337-0.33074 4.2016-0.5352 4.61-5.4968 6.0918-8.6213 9.0167-23.637 18.229-47.223 27.125-70.892 1.2417-3.6548-2.4614-7.1171-6.0672-6.4599-57.363-0.6108-114.73-0.52577-172.1-0.75778-67.801-0.16604-135.6-0.38034-203.4-0.39725z"/>
  </g>
  <g stroke-width=".037202">
   <path d="m297.59 511.15c-5.7318 0.26437-11.622-0.46967-17.26 0.64744-3.852 1.3738-4.1063 6.4818-1.5023 9.187 6.6778 10.265 13.301 20.633 20.506 30.509 3.3035 3.2822 8.4977 1.2799 12.66 1.8387 18.109 0.12844 36.137-0.37215 54.179 0.91613 15.859 0.47951 31.74 0.54266 47.529 1.1172 17.545 30.646 34.817 61.497 52.532 92.014 3.1401 3.7298 8.6262 1.6331 12.869 2.195 3.3435-0.24083 7.5554 0.83782 10.069-2.0102 4.7404-0.39149 9.8977 0.53104 14.58-0.89905 3.5949-2.2924 2.3465-6.8352 0.24168-9.7153-21.828-40.973-43.502-82.077-65.38-122.99-3.0633-3.9628-8.7362-1.7329-13.021-2.321-42.667 0.0413-85.333-0.42237-128-0.48578z"/>
   <path d="m593.35 656.01c-5.0671 0.44941-10.562-0.92852-15.32 1.2614-4.4113 3.0818-4.7835 9.0984-7.014 13.619-12.415 33.439-24.682 66.933-36.765 100.49-1.3527 4.0963 2.845 7.6181 6.7804 6.6545 11.262-0.43458 22.608 0.0925 33.814-1.1778 4.7353-1.4345 5.0343-7.3285 7.1418-11.073 9.325-22.151 17.629-44.737 27.509-66.649 0.76929-1.9071 3.5405-0.55265 5.0229-1.0536 32.39-0.49877 65.022 0.0607 97.491-0.82107 4.3742-0.49029 5.4741-5.8052 3.4761-9.1485-3.6539-9.2852-6.6202-18.964-11.609-27.643-3.1492-5.2276-9.8506-3.5127-14.906-3.9421-31.871-0.40986-63.747-0.56065-95.621-0.52121z"/>
   <path d="m321.11 645.32c-35.238 0.35565-70.492 0.32708-105.72 1.273-4.0813 0.6202-5.3007 5.4946-3.3684 8.7258 34.618 92.392 69.553 184.75 103.83 277.22 1.8591 3.649 1.9553 8.802 5.5421 11.187 4.1324 1.6528 8.8961 0.27312 13.283 0.66594 7.7643-0.34708 15.667 0.47461 23.346-0.81335 3.9321-1.1351 4.609-6.0552 2.5869-9.1614-32.084-82.315-64.596-164.6-96.494-246.9 26.723-0.82226 53.466-0.52095 80.192-1.5268 3.8777-0.82732 5.1973-5.6518 2.8357-8.6379-5.7499-10.109-11.71-20.149-17.885-29.974-1.8635-2.656-5.3539-2.0124-8.1466-2.054z"/>
   <path d="m706.88 517.19c-7.8396 0.18651-15.769-0.23915-23.55 0.39315-4.2075 0.63204-4.8036 5.9538-2.6506 8.9713 4.3614 9.8718 8.1246 20.094 12.854 29.75 2.8588 3.898 8.3875 1.6537 12.485 2.1745 18.377-0.14123 36.759-0.55292 55.136-0.31197 10.252 26.828 20.389 53.712 30.766 80.497 38.913 100.93 77.949 201.81 117.49 302.5 2.3674 4.9023 8.6639 3.4745 13.057 3.7209 8.6324-0.12643 17.282-0.0113 25.902-0.45113 4.1416-0.80663 5.0299-5.7262 3.0453-8.9331-40.032-104.93-80.539-209.68-120.7-314.55 1.2466-4.234-2.0942-8.1809-3.0518-12.187-11.22-29.386-22.276-58.882-33.765-88.136-2.579-4.5112-8.5306-2.3074-12.76-2.9016-24.751-0.2663-49.502-0.55725-74.254-0.53921z"/>
  </g>
 </g>
</svg>
